<svg xmlns="http://www.w3.org/2000/svg" viewBox="0 0 89.88 90.87"><defs><style>.cls-1{fill:#fff;}</style></defs><title>자산 1</title><g id="레이어_2" data-name="레이어 2"><polygon class="cls-1" points="86.34 33.05 83.52 53.26 78.83 37.38 75.12 39.52 75.12 79.43 79.45 76.94 79.45 59.11 83.93 70.65 86.6 55.27 86.6 72.81 89.88 70.91 89.88 31 86.34 33.05"/><polygon class="cls-1" points="53.19 7.35 46.86 11 56.4 16.51 46.82 22.03 37.29 16.52 37.27 16.54 27.77 11.06 18.19 16.59 27.69 22.07 18.62 27.3 53.19 47.26 87.75 27.3 53.19 7.35"/><polygon class="cls-1" points="27.77 0 18.19 5.53 27.77 11.06 37.34 5.53 27.77 0"/><polygon class="cls-1" points="0 9.31 6.55 13.09 13.1 9.31 6.55 5.53 0 9.31"/><path class="cls-1" d="M55.32,51V90.87l6-3.46V72.25l4.27-2.47V84.94l5.27-3V42Zm10.26,8.31-4.27,2.48V57.19l4.27-2.46Z"/><path class="cls-1" d="M31.16,53.87V41.2A2.75,2.75,0,0,0,30,38.79L16.49,31V70.91l10.3,6a3.07,3.07,0,0,0,4.37-2.79V60A3.08,3.08,0,0,0,28.08,57,3.08,3.08,0,0,0,31.16,53.87ZM21.69,43.64l3.85,2.22v4.93l-3.85-2.22Zm0,15.21,3.43,2,.42.24V66l-3.85-2.22Z"/><path class="cls-1" d="M50.1,64.81V52.13a2.74,2.74,0,0,0-1.18-2.4L35.43,41.94V81.85l10.3,6A3.07,3.07,0,0,0,50.1,85V71A3.08,3.08,0,0,0,47,67.89,3.08,3.08,0,0,0,50.1,64.81ZM40.64,54.58l3.84,2.22v4.93l-3.84-2.22Zm0,15.21,3.42,2,.42.24v4.93l-3.84-2.22Z"/></g></svg>