<svg xmlns="http://www.w3.org/2000/svg" viewBox="0 0 194.7 162.59"><defs><style>.cls-1{fill:#519cfe;}.cls-2{fill:#8da1fe;}.cls-3{fill:#c291fe;}.cls-4{fill:none;stroke:#231815;stroke-miterlimit:10;stroke-width:2px;}</style></defs><title>자산 8</title><g id="레이어_2" data-name="레이어 2"><g id="레이어_1-2" data-name="레이어 1"><rect class="cls-1" x="25.79" y="105.94" width="26.66" height="54.93" rx="4.33" ry="4.33"/><rect class="cls-1" x="64.32" y="80.19" width="26.66" height="78.39" rx="4.33" ry="4.33"/><rect class="cls-2" x="101.99" y="48.72" width="26.66" height="110.44" rx="4.33" ry="4.33"/><rect class="cls-3" x="140.81" y="29.27" width="26.66" height="130.46" rx="4.33" ry="4.33"/><path class="cls-1" d="M8.11,158a4.2,4.2,0,0,1-4,4.33A4.21,4.21,0,0,1,0,158V18.43A4.22,4.22,0,0,1,4.06,14.1a4.21,4.21,0,0,1,4.05,4.33Z"/><path class="cls-1" d="M190.37,154.29a4.15,4.15,0,1,1,0,8.3H5.78a4.15,4.15,0,1,1,0-8.3Z"/><path class="cls-4" d="M30,122.89s77.09-.5,120.92-88.56L135.83,21.89l46.35-20.4,3,50.25-13.1-8.45S138.35,131.35,30,122.89Z"/></g></g></svg>