<svg xmlns="http://www.w3.org/2000/svg" xmlns:xlink="http://www.w3.org/1999/xlink" viewBox="0 0 233.3 275.41"><defs><style>.cls-1,.cls-11,.cls-15,.cls-16,.cls-17,.cls-18,.cls-3,.cls-5,.cls-7{fill:none;}.cls-19,.cls-2,.cls-8,.cls-9{fill:#fff;}.cls-11,.cls-18,.cls-19,.cls-3,.cls-5,.cls-7,.cls-8{stroke-miterlimit:10;}.cls-11,.cls-15,.cls-16,.cls-17,.cls-3,.cls-5,.cls-7,.cls-8,.cls-9{stroke-width:2px;}.cls-3{stroke:url(#무제_그라디언트_247);}.cls-4{fill:url(#무제_그라디언트_247-2);}.cls-5{stroke:url(#무제_그라디언트_247-3);}.cls-6{fill:url(#무제_그라디언트_247-4);}.cls-15,.cls-16,.cls-17,.cls-7{stroke:#519cfe;}.cls-11,.cls-18,.cls-19,.cls-8,.cls-9{stroke:#231815;}.cls-15,.cls-16,.cls-17,.cls-9{stroke-linecap:round;stroke-linejoin:round;}.cls-10{fill:#231815;}.cls-12{fill:#519cfe;}.cls-13{clip-path:url(#clip-path);}.cls-14{fill:#99caff;}.cls-16{stroke-dasharray:0.09 4.5;}.cls-17{stroke-dasharray:0.1 4.92;}.cls-18,.cls-19{stroke-width:1.8px;}</style><linearGradient id="무제_그라디언트_247" x1="11.77" y1="140.78" x2="212.35" y2="140.78" gradientUnits="userSpaceOnUse"><stop offset="0" stop-color="#c291fe"/><stop offset="1" stop-color="#519cfe"/></linearGradient><linearGradient id="무제_그라디언트_247-2" x1="11.77" y1="215.99" x2="212.35" y2="215.99" xlink:href="#무제_그라디언트_247"/><linearGradient id="무제_그라디언트_247-3" x1="21.84" y1="135.53" x2="153.15" y2="135.53" xlink:href="#무제_그라디언트_247"/><linearGradient id="무제_그라디언트_247-4" x1="21.84" y1="59.46" x2="153.15" y2="59.46" xlink:href="#무제_그라디언트_247"/><clipPath id="clip-path"><rect class="cls-1" x="92.55" y="108.42" width="39.01" height="66.51" rx="3.43" ry="3.43"/></clipPath></defs><title>자산 7</title><g id="레이어_2" data-name="레이어 2"><g id="레이어_1-2" data-name="레이어 1"><path class="cls-2" d="M53.75,220.15a97.53,97.53,0,0,1-41-79.37c0-54.15,44.45-98.05,99.29-98.05s99.29,43.9,99.29,98.05-44.46,98.05-99.29,98.05a99.79,99.79,0,0,1-51.66-14.3"/><path class="cls-3" d="M48.63,216.21a97.36,97.36,0,0,1-35.86-75.43c0-54.15,44.45-98.05,99.29-98.05s99.29,43.9,99.29,98.05-44.46,98.05-99.29,98.05a99.79,99.79,0,0,1-51.66-14.3"/><polygon class="cls-4" points="50.4 211.82 53.75 220.15 44.86 218.89 50.4 211.82"/><path class="cls-2" d="M70,218.51a88,88,0,0,1-47.18-77.73c0-48.66,39.94-88.1,89.22-88.1a89.89,89.89,0,0,1,40.64,9.64"/><path class="cls-5" d="M70,218.51a88,88,0,0,1-47.18-77.73c0-48.66,39.94-88.1,89.22-88.1A89.89,89.89,0,0,1,147.5,59.9"/><polygon class="cls-6" points="144.76 63.1 152.69 62.33 148.06 55.83 144.76 63.1"/><path class="cls-7" d="M158.14,65.32a87.85,87.85,0,0,1,43.14,75.46c0,48.66-39.95,88.1-89.22,88.1a89.71,89.71,0,0,1-42-10.37"/><path class="cls-8" d="M68.17,72.4h30s5.29-38.6-15.29-38.6S68.17,72.4,68.17,72.4Z"/><ellipse class="cls-8" cx="83.07" cy="20.48" rx="17.98" ry="17.75"/><path class="cls-8" d="M85.57,11.11s.5,11.34-10,11.34H61.1S61.6,1,82.82,1s21.85,21.58,21.85,21.58S85.57,25.66,85.57,11.11Z"/><path class="cls-9" d="M64.75,22.82S55,29.31,55,44.77C55,44.77,65.06,38.9,64.75,22.82Z"/><path class="cls-9" d="M100.83,23.32s9.7,6.49,9.7,21.94C110.53,45.26,100.52,39.39,100.83,23.32Z"/><ellipse class="cls-10" cx="77.6" cy="27.07" rx="1.62" ry="1.6"/><ellipse class="cls-10" cx="88.28" cy="27.07" rx="1.62" ry="1.6"/><polyline class="cls-9" points="188.69 97.64 188.69 114.06 232.14 114.06 232.14 97.77"/><path class="cls-8" d="M195.76,147.59h30S231,109,210.46,109,195.76,147.59,195.76,147.59Z"/><ellipse class="cls-8" cx="210.67" cy="95.67" rx="17.98" ry="17.75"/><path class="cls-8" d="M213.17,86.3s.5,11.34-10,11.34H188.7s.49-21.45,21.72-21.45,21.85,21.57,21.85,21.57S213.17,100.85,213.17,86.3Z"/><ellipse class="cls-10" cx="205.2" cy="102.26" rx="1.62" ry="1.6"/><ellipse class="cls-10" cx="215.88" cy="102.26" rx="1.62" ry="1.6"/><path class="cls-8" d="M144.38,274.41h30s5.29-38.6-15.28-38.6S144.38,274.41,144.38,274.41Z"/><ellipse class="cls-8" cx="159.29" cy="222.49" rx="17.98" ry="17.75"/><path class="cls-9" d="M161.85,212.74s.51,11.65-10.26,11.65-11.16,2.49-11.16,2.49-3.21-24.53,18.6-24.53,19.29,24.46,19.29,24.46S161.85,227.69,161.85,212.74Z"/><ellipse class="cls-10" cx="153.81" cy="229.08" rx="1.62" ry="1.6"/><ellipse class="cls-10" cx="164.49" cy="229.08" rx="1.62" ry="1.6"/><path class="cls-8" d="M4.07,207.77h30s5.29-38.61-15.28-38.61S4.07,207.77,4.07,207.77Z"/><ellipse class="cls-8" cx="18.98" cy="155.85" rx="17.98" ry="17.75"/><ellipse class="cls-10" cx="13.51" cy="162.44" rx="1.62" ry="1.6"/><ellipse class="cls-10" cx="24.19" cy="162.44" rx="1.62" ry="1.6"/><path class="cls-9" d="M35.55,149.28c.79,4.84-7.2,7.45-7.2,7.45,2.06-2.9.93-9.58.93-9.58-.78,5.13-8,8.23-8,8.23s-13.52,5.51-20.09-.2"/><rect class="cls-11" x="88.63" y="99.47" width="46.86" height="82.62" rx="5.13" ry="5.13"/><rect class="cls-12" x="92.55" y="108.42" width="39.01" height="66.51" rx="3.43" ry="3.43"/><ellipse class="cls-10" cx="98.18" cy="104.94" rx="1.6" ry="1.58"/><ellipse class="cls-10" cx="102.36" cy="104.94" rx="1.15" ry="1.14"/><rect class="cls-10" x="105.73" y="103.6" width="12.66" height="2.69" rx="0.56" ry="0.56"/><g class="cls-13"><polygon class="cls-14" points="130.99 106.73 91.8 175.86 91.8 106.45 130.99 106.73"/></g><line class="cls-15" x1="90.71" y1="76.6" x2="90.73" y2="76.65"/><line class="cls-16" x1="92.47" y1="80.8" x2="96.93" y2="91.42"/><line class="cls-15" x1="97.8" y1="93.49" x2="97.82" y2="93.54"/><line class="cls-15" x1="133.8" y1="186.08" x2="133.82" y2="186.12"/><line class="cls-16" x1="135.56" y1="190.27" x2="140.02" y2="200.9"/><line class="cls-15" x1="140.89" y1="202.97" x2="140.91" y2="203.02"/><line class="cls-15" x1="187.35" y1="130.72" x2="187.3" y2="130.73"/><line class="cls-17" x1="182.56" y1="132.04" x2="146.26" y2="142.03"/><line class="cls-15" x1="143.89" y1="142.69" x2="143.84" y2="142.7"/><line class="cls-15" x1="81.08" y1="160.05" x2="81.04" y2="160.06"/><line class="cls-17" x1="76.3" y1="161.37" x2="39.99" y2="171.37"/><line class="cls-15" x1="37.62" y1="172.02" x2="37.57" y2="172.03"/><path class="cls-2" d="M103.31,131.41h15.28a.29.29,0,0,1,.29.28s.33,11.83-4.1,12.84h-7.44a1.19,1.19,0,0,1-.53-.14s-3.39-1.88-3.28-13.43"/><path class="cls-18" d="M103.31,131.41h15.28a.29.29,0,0,1,.29.28s.33,11.83-4.1,12.84h-7.44a1.19,1.19,0,0,1-.53-.14s-3.39-1.88-3.28-13.43"/><path class="cls-18" d="M103.31,132.64s-6-.56-4.21,3.81c0,0,2.28,4.38,5.91,4.94"/><path class="cls-18" d="M119.12,132.67s6-.56,4.21,3.81c0,0-2.28,4.38-5.91,4.94"/><path class="cls-19" d="M106.83,144.53a26.19,26.19,0,0,1,1.87,10"/><path class="cls-19" d="M115.53,144.36a26.09,26.09,0,0,0-1.88,10"/><rect class="cls-10" x="104.72" y="154.12" width="12.66" height="2.69" rx="0.56" ry="0.56"/><rect class="cls-10" x="102.5" y="157.82" width="17.05" height="2.48" rx="0.56" ry="0.56"/><path class="cls-18" d="M118.54,131.54H103.26a.29.29,0,0,0-.29.28s-.34,11.83,4.09,12.84h7.45a1.42,1.42,0,0,0,.53-.13s3.38-1.89,3.27-13.44"/><polygon class="cls-10" points="110.81 134.15 111.86 136.26 114.22 136.6 112.52 138.25 112.92 140.57 110.81 139.47 108.69 140.57 109.1 138.25 107.39 136.6 109.75 136.26 110.81 134.15"/></g></g></svg>