<svg xmlns="http://www.w3.org/2000/svg" viewBox="0 0 40.57 42.65"><defs><style>.cls-1{opacity:0.84;}.cls-2{fill:#519cfe;}.cls-3{fill:#fff;}.cls-4{fill:#fffdfd;}.cls-5{fill:#bbb;}.cls-6{fill:#f2f2f2;}.cls-7{fill:#88c7ff;}</style></defs><title>전국대전</title><g id="레이어_2" data-name="레이어 2"><g id="레이어_1-2" data-name="레이어 1"><g class="cls-1"><rect class="cls-2" x="8.98" y="0.08" width="22.38" height="1.83" rx="0.57" ry="0.57"/><path class="cls-2" d="M20.4,33.05h3.94c.29-1.33-1.59-1.14-1.59-1.14.79,0,.83-.6.83-.6.16-.75-.83-.79-.83-.79v-1.1c1,0,1-.73,1-.73,0-1.07-1.1-.82-1.1-.82v-.52c6.61-1.52,7.36-5.9,7.36-5.9C40.66,20.06,40.57,4.91,40.57,4.91a1.09,1.09,0,0,0-1.28-1.23H33.21c-1.76-.12-1.36,1.18-1.36,1.18l-1.06,0,0-3H9.42L9.5,4.85l-.82,0s.26-1.26-1.43-1.16H1.37A1.23,1.23,0,0,0,0,5S-.44,19.85,10.29,21.3c0,0,.86,4.61,7.37,6.07v.53s-1.12-.22-1.06.82a.79.79,0,0,0,1,.64v1.16s-1.13,0-1.06.76a.62.62,0,0,0,.46.63S15.81,32,15.91,33Z"/><path class="cls-3" d="M30.71,6.84H31.8s.2,1.68-1.12,1.39C30.68,8.23,30.71,6.91,30.71,6.84Z"/><path class="cls-4" d="M34,5.48h4.53s-.63,13.27-8.1,13.9l.23-9.22S34.64,10.16,34,5.48Z"/><path class="cls-3" d="M9.7,6.81H8.61S8.41,8.48,9.73,8.2C9.73,8.2,9.7,6.87,9.7,6.81Z"/><path class="cls-3" d="M6.46,5.45H1.94S2.56,18.71,10,19.35L9.8,10.13S5.77,10.13,6.46,5.45Z"/><rect class="cls-5" x="12.56" y="34.63" width="15.03" height="6.13"/><path class="cls-5" d="M12.58,34.62l1.34-1.72H26.27l1.36,1.72S12.58,34.57,12.58,34.62Z"/><rect class="cls-5" x="11.78" y="40.74" width="16.59" height="1.91" rx="0.57" ry="0.57"/><rect class="cls-2" x="17.41" y="31.24" width="2.17" height="1.12"/><polygon class="cls-6" points="12.56 34.65 27.61 34.65 26.34 32.93 12.56 34.65"/><path class="cls-6" d="M11.78,41.56a.73.73,0,0,1,.78-.83H27.61a.76.76,0,0,1,.74.83S11.81,41.52,11.78,41.56Z"/><path class="cls-7" d="M16.6,28.67s-.2-.83,1.06-.83H23.2a.8.8,0,0,1,.54.77Z"/><path class="cls-7" d="M16.54,31.34s-.19-.86,1.05-.86h5.48a.83.83,0,0,1,.53.8Z"/><path class="cls-7" d="M16,32.43s-.23-.52,1.22-.52h6.38s.68.13.62.48Z"/><path class="cls-7" d="M9,.88A.77.77,0,0,1,9.85,0h20.8s.75,0,.75.94C31.4.94,9,.86,9,.88Z"/><path class="cls-7" d="M11.73,2.5h4V23.39s-3.07-.86-3.8-3Z"/><path class="cls-7" d="M16.73,23.53l1.35.64V2.5H16.75S16.76,23.47,16.73,23.53Z"/></g></g></g></svg>