<svg xmlns="http://www.w3.org/2000/svg" viewBox="0 0 36.6 37.34"><defs><style>.cls-1{opacity:0.84;}.cls-2{fill:#5fa0ff;}.cls-3{fill:#fff;}.cls-4{fill:#839aed;}.cls-5{fill:#97c9ff;}</style></defs><title>커뮤니티</title><g id="레이어_2" data-name="레이어 2"><g id="레이어_1-2" data-name="레이어 1"><g class="cls-1"><ellipse class="cls-2" cx="15.23" cy="11.82" rx="15.23" ry="11.82"/><polygon class="cls-2" points="5.64 19.59 1.63 26.9 12.91 22.72 5.64 19.59"/><ellipse class="cls-3" cx="9.28" cy="11.62" rx="1.44" ry="1.5"/><ellipse class="cls-3" cx="15.42" cy="11.49" rx="1.44" ry="1.5"/><ellipse class="cls-3" cx="21.81" cy="11.62" rx="1.44" ry="1.5"/><ellipse class="cls-4" cx="24.57" cy="25.66" rx="12.03" ry="8.94"/><polygon class="cls-4" points="26.7 33.69 35.6 37.34 31.46 30.95 26.7 33.69"/><ellipse class="cls-3" cx="20.66" cy="25.85" rx="0.93" ry="0.97"/><ellipse class="cls-3" cx="24.63" cy="25.77" rx="0.93" ry="0.97"/><ellipse class="cls-3" cx="28.76" cy="25.85" rx="0.93" ry="0.97"/><ellipse class="cls-5" cx="9.67" cy="3.61" rx="4.43" ry="1.38" transform="translate(-0.61 4.58) rotate(-25.87)"/><ellipse class="cls-5" cx="4.07" cy="7.64" rx="1.21" ry="0.74" transform="matrix(0.68, -0.74, 0.74, 0.68, -4.31, 5.48)"/></g></g></g></svg>