<svg xmlns="http://www.w3.org/2000/svg" viewBox="0 0 27.38 42.31"><defs><style>.cls-1{opacity:0.84;}.cls-2{fill:#519cfe;}.cls-3{fill:#85c5ff;}.cls-4{fill:#bde0ff;}.cls-5{fill:#eee;}.cls-6{fill:#bbb;}.cls-7{fill:#fff;}.cls-8{fill:#3f3f3f;}.cls-9{fill:none;stroke:#bde0ff;stroke-miterlimit:10;stroke-width:0.5px;}</style></defs><title>샌드박스</title><g id="레이어_2" data-name="레이어 2"><g id="레이어_1-2" data-name="레이어 1"><g class="cls-1"><path class="cls-2" d="M5.15,23.58C-1,18.5-1.57,9.7,3.36,4.37,8.88-1.58,19.47-1.29,24.59,5c4.56,5.57,3.48,14.28-2.95,19L20.2,30.14H7.14Z"/><path class="cls-3" d="M3.85,12.84A13,13,0,0,1,15.88.16,14.32,14.32,0,0,0,3.32,4.28C-1.62,9.61-1.07,18.4,5.1,23.49l2,6.56h3.35L8,22.07A12.41,12.41,0,0,1,3.85,12.84Z"/><ellipse class="cls-4" cx="8.05" cy="4.25" rx="4.02" ry="1.6" transform="translate(-1.03 4.88) rotate(-31.84)"/><rect class="cls-5" x="7.1" y="30.05" width="13.13" height="7.6"/><rect class="cls-6" x="6.33" y="32.31" width="14.49" height="1.6" rx="0.57" ry="0.57"/><path class="cls-5" d="M7.1,36.43a7.29,7.29,0,0,0,6.54,5.88s4.89,0,6.6-5.56"/><rect class="cls-6" x="6.49" y="34.59" width="14.18" height="1.6" rx="0.57" ry="0.57"/><rect class="cls-6" x="6.62" y="36.76" width="13.95" height="1.6" rx="0.57" ry="0.57"/><path class="cls-5" d="M6.32,33.13s-.18-.82.77-.82H20.28s.56,0,.56.84C20.84,33.15,6.28,33.09,6.32,33.13Z"/><path class="cls-5" d="M6.46,35.39a.68.68,0,0,1,.76-.83H20.13s.55,0,.55.84C20.68,35.4,6.42,35.35,6.46,35.39Z"/><path class="cls-5" d="M6.64,37.56a.67.67,0,0,1,.74-.82h12.7s.54,0,.54.84C20.62,37.58,6.6,37.53,6.64,37.56Z"/><path class="cls-6" d="M14.76,30.05v2.24a1.11,1.11,0,0,1,0,1.61v.74a1,1,0,0,1,0,1.52v.6s.69.9,0,1.56c0,0,1.57,2.31,0,3.8a6.56,6.56,0,0,0,4.83-3.9l.61-.71V30S14.71,30,14.76,30.05Z"/><path class="cls-6" d="M20.85,32.83a.58.58,0,0,0-.57-.57H17.71a.58.58,0,0,0-.57.57v.47a.55.55,0,0,0,.56.56h2.59a.57.57,0,0,0,.57-.56Z"/><path class="cls-6" d="M20.74,35.14a.58.58,0,0,0-.57-.57H17.66a.59.59,0,0,0-.58.57v.46a.57.57,0,0,0,.56.57h2.54a.58.58,0,0,0,.57-.57Z"/><path class="cls-6" d="M20.64,37.35a.57.57,0,0,0-.56-.57h-2.5a.58.58,0,0,0-.57.57v.47a.56.56,0,0,0,.56.56h2.52a.56.56,0,0,0,.56-.56Z"/><path class="cls-7" d="M8.44,32.78s0-.44.16-.44h2.71s.12,0,.12.44C11.43,32.78,8.43,32.76,8.44,32.78Z"/><path class="cls-7" d="M8.35,35s0-.44.16-.44h2.71s.11,0,.11.45C11.33,35,8.34,35,8.35,35Z"/><path class="cls-7" d="M8.3,37.27s0-.44.16-.44h2.71s.11,0,.11.45C11.28,37.28,8.29,37.25,8.3,37.27Z"/><rect class="cls-7" x="9.06" y="30.05" width="2.2" height="2.12"/><rect class="cls-7" x="9.04" y="33.91" width="2.2" height="0.53"/><rect class="cls-7" x="8.96" y="36.19" width="2.2" height="0.53"/><path class="cls-7" d="M9.13,38.44h2.14a3.86,3.86,0,0,0,.84,2.25H10.43A3.56,3.56,0,0,1,9.13,38.44Z"/><path class="cls-8" d="M13.64,42.31a7,7,0,0,0,4.07-1.65H9.62A7.22,7.22,0,0,0,13.64,42.31Z"/><polyline class="cls-9" points="10.42 15.72 12.17 11.89 13.59 17.69 15.23 11.45 16.43 15.72"/></g></g></g></svg>