<svg xmlns="http://www.w3.org/2000/svg" viewBox="0 0 41.88 44.42"><defs><style>.cls-1{opacity:0.84;}.cls-2{fill:#519cfe;}.cls-3{fill:#8da1fe;}.cls-4{fill:#353535;}.cls-5{fill:#85c5ff;}.cls-6{fill:#bde0ff;}.cls-7{fill:#383838;}.cls-8{fill:#e2e2e2;}</style></defs><title>문제풀이</title><g id="레이어_2" data-name="레이어 2"><g id="레이어_1-2" data-name="레이어 1"><g class="cls-1"><path class="cls-2" d="M.08,2.27s7.67-5.11,15.82,0h9.59s1.2-.26,1,1V8.16s-.18,1.08-1,.83H10.57L9.31,10.17H6.37L5.06,9.09H3.26s-.48.15-.42.52V35.12H4.76L6.25,36.3H9l1.38-1.18h15.1s1.14-.16,1.2.87V39.2s-.06.67-1,.56H.86s-1,.37-.84-.77Z"/><path class="cls-3" d="M3.75,11.15H6l.94,1.15H9.67l1.09-1.21H40.59a1,1,0,0,1,1.26,1v7.4s.28,1.14-1,1H13.12l-1.2,1.27H9.5L8.13,20.36H6.32v7.71H8.24l1.1,1.32h2.41L13,28.31H40.81s1.1-.24.93,1v3.43s0,.84-1,.84H10.54L9.45,34.93H7.14L5.72,33.54H3.8Z"/><ellipse class="cls-4" cx="19.32" cy="22.05" rx="10.75" ry="10.62" transform="translate(-4.02 4.31) rotate(-11.53)"/><polygon class="cls-4" points="35.88 42.06 34.35 43.21 25.03 31.06 26.55 29.91 35.88 42.06"/><rect class="cls-4" x="31.69" y="35.96" width="3.06" height="8.41" transform="translate(-17.72 29.11) rotate(-38.16)"/><circle class="cls-5" cx="19.29" cy="21.94" r="8.88"/><path class="cls-6" d="M11.6,21.88a7.7,7.7,0,0,0,1.09,3.95l5-11.5A7.71,7.71,0,0,0,11.6,21.88Z"/><path class="cls-6" d="M19.31,14.17l-.3,0L13.45,26.88a7.44,7.44,0,0,0,1.47,1.33l6-13.85A7.54,7.54,0,0,0,19.31,14.17Z"/><rect class="cls-7" x="26.35" y="32.46" width="3.03" height="1.18" rx="0.58" ry="0.58" transform="translate(-14.24 23.26) rotate(-36.78)"/><path class="cls-4" d="M27.29,30.87,25.81,32a.59.59,0,0,0-.15.75L28.09,31A.59.59,0,0,0,27.29,30.87Z"/><path class="cls-7" d="M28.09,31l-2.43,1.76,0,.07a.59.59,0,0,0,.83.12L28,31.82a.6.6,0,0,0,.12-.83Z"/><path class="cls-4" d="M28.2,32l-1.48,1.1a.59.59,0,0,0-.16.75L29,32.05A.59.59,0,0,0,28.2,32Z"/><rect class="cls-8" x="29.79" y="37.49" width="3.13" height="0.62" transform="matrix(0.79, -0.62, 0.62, 0.79, -16.65, 27.45)"/></g></g></g></svg>